<svg width="20" height="20" viewBox="0 0 20 20" fill="none" xmlns="http://www.w3.org/2000/svg">
<path d="M19.9475 7.179C19.8185 6.801 19.4775 6.534 19.0795 6.503L13.3785 6.05L10.9115 0.589C10.7505 0.23 10.3935 0 10.0005 0C9.60747 0 9.25047 0.23 9.08947 0.588L6.62247 6.05L0.921467 6.503C0.530467 6.534 0.193467 6.791 0.0604671 7.16C-0.0725329 7.529 0.0214672 7.942 0.302467 8.216L4.51547 12.323L3.02547 18.775C2.93347 19.174 3.09447 19.589 3.43147 19.822C3.60347 19.94 3.80147 20 4.00047 20C4.19347 20 4.38747 19.944 4.55547 19.832L10.0005 16.202L15.4455 19.832C15.7935 20.064 16.2505 20.055 16.5905 19.808C16.9285 19.561 17.0775 19.128 16.9625 18.726L15.1335 12.326L19.6695 8.244C19.9665 7.976 20.0755 7.558 19.9475 7.179Z" fill="#EBA41F"/>
</svg>
